<svg xmlns="http://www.w3.org/2000/svg" viewBox="0 0 1200 900" fill="none">
  <rect width="1200" height="900" rx="48" fill="#0E162A"/>
  <rect x="145" y="128" width="910" height="644" rx="36" fill="#172645"/>
  <rect x="214" y="202" width="420" height="470" rx="24" fill="#223763"/>
  <path d="M290 562c70-14 103-57 166-79 46-16 118-10 152 30l45 54H314c-45 0-65-36-24-65Z" fill="#7EC8FF"/>
  <path d="M311 546c57-11 86-46 136-64 37-13 95-8 123 25l36 43H330c-36 0-52-28-19-50Z" fill="#38C98A"/>
  <rect x="692" y="214" width="286" height="28" rx="14" fill="#38C98A"/>
  <rect x="692" y="278" width="224" height="20" rx="10" fill="#7EC8FF"/>
  <rect x="692" y="330" width="252" height="20" rx="10" fill="#7EC8FF"/>
  <rect x="692" y="382" width="208" height="20" rx="10" fill="#7EC8FF"/>
  <rect x="692" y="452" width="241" height="118" rx="20" fill="#0F1A31" stroke="#38C98A" stroke-width="4"/>
  <text x="184" y="101" fill="#FFBF47" font-family="Arial, sans-serif" font-size="28" font-weight="700">MAKER_LAB_SNEAKER_KIT</text>
  <text x="176" y="823" fill="#ECF2FF" font-family="Arial, sans-serif" font-size="40" font-weight="700">DIGITAL_LISTING_IMAGE_OBJECT</text>
</svg>
